<?xml version="1.0" encoding="UTF-8" standalone="no"?>
<svg
   xmlns:dc="http://purl.org/dc/elements/1.1/"
   xmlns:cc="http://creativecommons.org/ns#"
   xmlns:rdf="http://www.w3.org/1999/02/22-rdf-syntax-ns#"
   xmlns:svg="http://www.w3.org/2000/svg"
   xmlns="http://www.w3.org/2000/svg"
   xmlns:xlink="http://www.w3.org/1999/xlink"
   xmlns:sodipodi="http://sodipodi.sourceforge.net/DTD/sodipodi-0.dtd"
   xmlns:inkscape="http://www.inkscape.org/namespaces/inkscape"
   width="18.790003mm"
   height="22.750002mm"
   viewBox="0 0 18.790003 22.750002"
   version="1.1"
   id="svg929"
   inkscape:version="1.0.1 (3bc2e813f5, 2020-09-07)"
   sodipodi:docname="sve.svg">
  <defs
     id="defs923">
    <linearGradient
       inkscape:collect="always"
       id="linearGradient1775">
      <stop
         style="stop-color:#fbffff;stop-opacity:0.15000001"
         offset="0"
         id="stop1771" />
      <stop
         style="stop-color:#000000;stop-opacity:0;"
         offset="1"
         id="stop1773" />
    </linearGradient>
    <linearGradient
       inkscape:collect="always"
       id="linearGradient1564">
      <stop
         style="stop-color:#0000ff;stop-opacity:1"
         offset="0"
         id="stop1560" />
      <stop
         style="stop-color:#000000;stop-opacity:0;"
         offset="1"
         id="stop1562" />
    </linearGradient>
    <clipPath
       id="clip_path_2"
       clipPathUnits="userSpaceOnUse">
      <path
         d="m 944,13 905,370 c 53,952 26,1560 -905,1878 z"
         id="path70" />
    </clipPath>
    <linearGradient
       inkscape:collect="always"
       xlink:href="#linearGradient1564"
       id="linearGradient1566"
       x1="944"
       y1="1137"
       x2="1865.0591"
       y2="1137"
       gradientUnits="userSpaceOnUse" />
    <linearGradient
       inkscape:collect="always"
       xlink:href="#linearGradient1775"
       id="linearGradient1769"
       x1="124.77714"
       y1="103.56048"
       x2="134.02658"
       y2="103.56048"
       gradientUnits="userSpaceOnUse" />
  </defs>
  <sodipodi:namedview
     id="base"
     pagecolor="#ffffff"
     bordercolor="#666666"
     borderopacity="1.0"
     inkscape:pageopacity="0.0"
     inkscape:pageshadow="2"
     inkscape:zoom="5.6568543"
     inkscape:cx="28.393886"
     inkscape:cy="42.114207"
     inkscape:document-units="mm"
     inkscape:current-layer="layer1"
     inkscape:document-rotation="0"
     showgrid="false"
     fit-margin-top="0"
     fit-margin-left="0"
     fit-margin-right="0"
     fit-margin-bottom="0"
     inkscape:window-width="1366"
     inkscape:window-height="703"
     inkscape:window-x="0"
     inkscape:window-y="0"
     inkscape:window-maximized="1" />
  <metadata
     id="metadata926">
    <rdf:RDF>
      <cc:Work
         rdf:about="">
        <dc:format>image/svg+xml</dc:format>
        <dc:type
           rdf:resource="http://purl.org/dc/dcmitype/StillImage" />
        <dc:title></dc:title>
      </cc:Work>
    </rdf:RDF>
  </metadata>
  <g
     inkscape:label="Layer 1"
     inkscape:groupmode="layer"
     id="layer1"
     transform="translate(-115.33714,-92.190475)">
    <rect
       class="BoundingBox"
       stroke="none"
       fill="none"
       x="115.33714"
       y="92.190475"
       width="18.790003"
       height="22.750002"
       id="rect51"
       style="stroke-width:0.01" />
    <path
       fill="#1a1a1a"
       stroke="none"
       d="m 124.77714,92.320475 -9.05,3.700001 c -0.8,9.520004 -0.26,15.600004 9.05,18.780004 9.31,-3.18 9.58,-9.26 9.05,-18.780004 z"
       id="path58"
       style="stroke-width:0.01" />
    <path
       fill="#ffcc00"
       stroke="none"
       d="m 121.39714,103.98048 c -0.35,0.29 -0.84,0.44 -1.49,0.44 -0.58,0 -1.1,-0.12 -1.56,-0.34 v -1.1 c 0.27,0.11 0.54,0.22 0.81,0.32 0.28,0.09 0.56,0.14 0.84,0.14 0.29,0 0.49,-0.06 0.61,-0.17 0.12,-0.11 0.18,-0.25 0.18,-0.43 0,-0.14 -0.04,-0.26 -0.14,-0.36 -0.09,-0.1 -0.22,-0.19 -0.38,-0.27 -0.16,-0.09 -0.34,-0.18 -0.55,-0.28 -0.12,-0.07 -0.26,-0.14 -0.41,-0.22 -0.15,-0.09 -0.29,-0.2 -0.43,-0.32 -0.14,-0.13 -0.25,-0.29 -0.33,-0.47 -0.09,-0.19 -0.13,-0.4 -0.13,-0.66 0,-0.500004 0.16,-0.890004 0.5,-1.170004 0.33,-0.28 0.78,-0.42 1.36,-0.42 0.29,0 0.56,0.03 0.82,0.1 0.26,0.07 0.53,0.17 0.81,0.29 l -0.38,0.93 c -0.25,-0.11 -0.47,-0.19 -0.67,-0.25 -0.2,-0.05 -0.41,-0.08 -0.62,-0.08 -0.22,0 -0.39,0.05 -0.51,0.15 -0.12,0.11 -0.17,0.240004 -0.17,0.410004 0,0.2 0.08,0.36 0.26,0.47 0.17,0.12 0.43,0.26 0.77,0.42 0.29,0.14 0.53,0.28 0.72,0.43 0.2,0.14 0.36,0.31 0.46,0.51 0.11,0.2 0.16,0.45 0.16,0.74 0,0.49 -0.17,0.89 -0.53,1.19 z"
       id="path60"
       style="stroke-width:0.01" />
    <path
       fill="#ffcc00"
       stroke="none"
       d="m 127.24714,98.750476 -1.87,5.590004 h -1.27 l -1.87,-5.590004 h 1.18 l 1.33,4.560004 c 0.18,-0.09 1.32,-4.560004 1.32,-4.560004 z"
       id="path62"
       style="stroke-width:0.01" />
    <path
       fill="#ffcc00"
       stroke="none"
       d="m 131.10714,104.34048 h -3.17 v -5.590004 h 3.17 v 0.97 h -2.01 v 1.230004 h 1.87 v 0.97 h -1.87 v 1.44 h 2.01 z"
       id="path64"
       style="stroke-width:0.01" />
    <path
       fill="none"
       stroke="#ffcc00"
       stroke-width="0.51"
       stroke-linejoin="miter"
       d="m 124.76714,93.680475 -7.89,3.230001 c -0.7,8.300004 -0.23,13.610004 7.89,16.380004 8.13,-2.77 8.36,-8.08 7.89,-16.380004 z"
       id="path66" />
    <g
       clip-path="url(#clip_path_2)"
       id="g77"
       transform="matrix(0.01,0,0,0.01,115.33714,92.190475)"
       style="opacity:0.15;fill:url(#linearGradient1566);fill-opacity:1;fill-rule:nonzero;stroke:none" />
    <path
       fill="#1a1a1a"
       stroke="none"
       d="m 124.77714,92.320471 v 22.480009 c 12.24528,-7.86227 12.41958,-17.402389 0,-22.480009 z"
       id="path58-3"
       style="fill:url(#linearGradient1769);fill-opacity:1;stroke-width:0.01"
       sodipodi:nodetypes="ccc" />
  </g>
</svg>
